<?xml version="1.0" encoding="UTF-8"?>
<svg width="294px" height="27px" viewBox="0 0 294 27" version="1.1" xmlns="http://www.w3.org/2000/svg" xmlns:xlink="http://www.w3.org/1999/xlink">
    <title>REACTSTMODAL</title>
    <g id="Page-1" stroke="none" stroke-width="1" fill="none" fill-rule="evenodd">
        <path d="M1.48,26 L1.48,13.505 L7.29,13.505 L14.78,26 L15.655,26 L8.13,13.47 C8.94666667,13.47 9.78083333,13.365 10.6325,13.155 C11.4841667,12.945 12.26,12.6008333 12.96,12.1225 C13.66,11.6441667 14.2316667,11.02 14.675,10.25 C15.1183333,9.48 15.34,8.51166667 15.34,7.345 C15.34,6.085 15.1066667,5.05833333 14.64,4.265 C14.1733333,3.47166667 13.5725,2.8475 12.8375,2.3925 C12.1025,1.9375 11.2683333,1.62833333 10.335,1.465 C9.40166667,1.30166667 8.48,1.22 7.57,1.22 L7.57,1.22 L0.71,1.22 L0.71,26 L1.48,26 Z M7.535,12.84 L1.48,12.84 L1.48,1.885 L7.15,1.885 C8.08333333,1.885 8.99916667,1.96666667 9.8975,2.13 C10.7958333,2.29333333 11.5891667,2.57916667 12.2775,2.9875 C12.9658333,3.39583333 13.52,3.95583333 13.94,4.6675 C14.36,5.37916667 14.57,6.27166667 14.57,7.345 C14.57,9.095 13.9691667,10.4483333 12.7675,11.405 C11.5658333,12.3616667 9.82166667,12.84 7.535,12.84 L7.535,12.84 Z M36.7366666,26 L36.7366666,25.3 L22.4916666,25.3 L22.4916666,13.505 L35.3716666,13.505 L35.3716666,12.805 L22.4916666,12.805 L22.4916666,1.92 L36.1766666,1.92 L36.1766666,1.22 L21.7566666,1.22 L21.7566666,26 L36.7366666,26 Z M40.4233332,26 L43.4683332,18.895 L57.8533332,18.895 L60.7933332,26 L61.6333332,26 L51.3083332,1.22 L50.3283332,1.22 L39.5833332,26 L40.4233332,26 Z M57.6083332,18.23 L43.7483332,18.23 L50.7833332,1.71 L57.6083332,18.23 Z M77.0449998,26.7 C78.7016665,26.7 80.3291665,26.3908333 81.9274998,25.7725 C83.5258331,25.1541667 84.8499998,24.215 85.8999998,22.955 L85.8999998,22.955 L85.3399998,22.43 C84.3599998,23.62 83.1174998,24.5125 81.6124998,25.1075 C80.1074998,25.7025 78.5849998,26 77.0449998,26 C75.2483331,26 73.6208331,25.6791667 72.1624998,25.0375 C70.7041665,24.3958333 69.4558331,23.515 68.4174998,22.395 C67.3791665,21.275 66.5799998,19.9625 66.0199998,18.4575 C65.4599998,16.9525 65.1799998,15.3366667 65.1799998,13.61 C65.1799998,11.8833333 65.4658331,10.2675 66.0374998,8.7625 C66.6091665,7.2575 67.4141665,5.945 68.4524998,4.825 C69.4908331,3.705 70.7391665,2.82416667 72.1974998,2.1825 C73.6558331,1.54083333 75.2716665,1.22 77.0449998,1.22 C77.6983331,1.22 78.3749998,1.27833333 79.0749998,1.395 C79.7749998,1.51166667 80.4691665,1.69833333 81.1574998,1.955 C81.8458331,2.21166667 82.4991665,2.5325 83.1174998,2.9175 C83.7358331,3.3025 84.2899998,3.75166667 84.7799998,4.265 L84.7799998,4.265 L85.2699998,3.705 C84.2433331,2.63166667 83.0008331,1.8325 81.5424998,1.3075 C80.0841665,0.7825 78.5849998,0.52 77.0449998,0.52 C75.2016665,0.52 73.5041665,0.846666667 71.9524998,1.5 C70.4008331,2.15333333 69.0649998,3.0575 67.9449998,4.2125 C66.8249998,5.3675 65.9558331,6.75 65.3374998,8.36 C64.7191665,9.97 64.4099998,11.72 64.4099998,13.61 C64.4099998,15.5 64.7191665,17.25 65.3374998,18.86 C65.9558331,20.47 66.8249998,21.8525 67.9449998,23.0075 C69.0649998,24.1625 70.3949998,25.0666667 71.9349998,25.72 C73.4749998,26.3733333 75.1783331,26.7 77.0449998,26.7 Z M97.1116664,26 L97.1116664,1.92 L105.546666,1.92 L105.546666,1.22 L87.9066664,1.22 L87.9066664,1.92 L96.3416664,1.92 L96.3416664,26 L97.1116664,26 Z M124.89,26.63 C125.986666,26.63 127.054166,26.4783333 128.0925,26.175 C129.130833,25.8716667 130.046666,25.4108333 130.84,24.7925 C131.633333,24.1741667 132.269166,23.3925 132.7475,22.4475 C133.225833,21.5025 133.465,20.3883333 133.465,19.105 C133.465,17.8683333 133.243333,16.8475 132.8,16.0425 C132.356666,15.2375 131.785,14.5666667 131.085,14.03 C130.385,13.4933333 129.603333,13.0616667 128.74,12.735 C127.876666,12.4083333 127.025,12.1166667 126.185,11.86 C125.485,11.6266667 124.825833,11.3991667 124.2075,11.1775 C123.589166,10.9558333 123.0525,10.6875 122.5975,10.3725 C122.1425,10.0575 121.780833,9.6725 121.5125,9.2175 C121.244166,8.7625 121.11,8.19666667 121.11,7.52 C121.11,6.82 121.255833,6.21916667 121.5475,5.7175 C121.839166,5.21583333 122.218333,4.79583333 122.685,4.4575 C123.151666,4.11916667 123.670833,3.87416667 124.2425,3.7225 C124.814166,3.57083333 125.38,3.495 125.94,3.495 C126.99,3.495 127.935,3.71083333 128.775,4.1425 C129.615,4.57416667 130.28,5.12833333 130.77,5.805 L130.77,5.805 L133.22,3.425 C132.45,2.56166667 131.435,1.87333333 130.175,1.36 C128.915,0.846666667 127.561666,0.59 126.115,0.59 C125.088333,0.59 124.0675,0.724166667 123.0525,0.9925 C122.0375,1.26083333 121.1275,1.68666667 120.3225,2.27 C119.5175,2.85333333 118.864166,3.58833333 118.3625,4.475 C117.860833,5.36166667 117.61,6.42333333 117.61,7.66 C117.61,8.80333333 117.796666,9.76 118.17,10.53 C118.543333,11.3 119.033333,11.9475 119.64,12.4725 C120.246666,12.9975 120.935,13.4291667 121.705,13.7675 C122.475,14.1058333 123.256666,14.3916667 124.05,14.625 C124.843333,14.8816667 125.595833,15.1325 126.3075,15.3775 C127.019166,15.6225 127.643333,15.92 128.18,16.27 C128.716666,16.62 129.1425,17.0458333 129.4575,17.5475 C129.7725,18.0491667 129.93,18.6733333 129.93,19.42 C129.93,20.1666667 129.778333,20.8025 129.475,21.3275 C129.171666,21.8525 128.780833,22.29 128.3025,22.64 C127.824166,22.99 127.293333,23.2466667 126.71,23.41 C126.126666,23.5733333 125.543333,23.655 124.96,23.655 C123.816666,23.655 122.755,23.3866667 121.775,22.85 C120.795,22.3133333 120.013333,21.6133333 119.43,20.75 L119.43,20.75 L116.735,23.025 C117.691666,24.215 118.899166,25.1133333 120.3575,25.72 C121.815833,26.3266667 123.326666,26.63 124.89,26.63 Z M146.741666,26 L146.741666,4.265 L154.686666,4.265 L154.686666,1.22 L135.331666,1.22 L135.331666,4.265 L143.276666,4.265 L143.276666,26 L146.741666,26 Z M170.039999,26 L170.039999,4.475 L170.109999,4.475 L179.069999,26 L180.399999,26 L189.359999,4.475 L189.429999,4.475 L189.429999,26 L191.949999,26 L191.949999,1.22 L188.099999,1.22 L179.804999,21.73 L179.769999,21.73 L171.369999,1.22 L167.519999,1.22 L167.519999,26 L170.039999,26 Z M210.371666,26.63 C212.214999,26.63 213.924166,26.3033333 215.499166,25.65 C217.074166,24.9966667 218.439166,24.0925 219.594166,22.9375 C220.749166,21.7825 221.653333,20.4116667 222.306666,18.825 C222.959999,17.2383333 223.286666,15.5 223.286666,13.61 C223.286666,11.72 222.959999,9.98166667 222.306666,8.395 C221.653333,6.80833333 220.749166,5.4375 219.594166,4.2825 C218.439166,3.1275 217.074166,2.22333333 215.499166,1.57 C213.924166,0.916666667 212.214999,0.59 210.371666,0.59 C208.528333,0.59 206.819166,0.916666667 205.244166,1.57 C203.669166,2.22333333 202.304166,3.1275 201.149166,4.2825 C199.994166,5.4375 199.089999,6.80833333 198.436666,8.395 C197.783333,9.98166667 197.456666,11.72 197.456666,13.61 C197.456666,15.5 197.783333,17.2383333 198.436666,18.825 C199.089999,20.4116667 199.994166,21.7825 201.149166,22.9375 C202.304166,24.0925 203.669166,24.9966667 205.244166,25.65 C206.819166,26.3033333 208.528333,26.63 210.371666,26.63 Z M210.371666,24.39 C208.784999,24.39 207.355833,24.0983333 206.084166,23.515 C204.812499,22.9316667 203.733333,22.15 202.846666,21.17 C201.959999,20.19 201.283333,19.0466667 200.816666,17.74 C200.349999,16.4333333 200.116666,15.0566667 200.116666,13.61 C200.116666,12.1633333 200.349999,10.7866667 200.816666,9.48 C201.283333,8.17333333 201.959999,7.02416667 202.846666,6.0325 C203.733333,5.04083333 204.812499,4.25333333 206.084166,3.67 C207.355833,3.08666667 208.784999,2.795 210.371666,2.795 C211.958333,2.795 213.387499,3.08666667 214.659166,3.67 C215.930833,4.25333333 217.009999,5.04083333 217.896666,6.0325 C218.783333,7.02416667 219.459999,8.17333333 219.926666,9.48 C220.393333,10.7866667 220.626666,12.1633333 220.626666,13.61 C220.626666,15.0566667 220.393333,16.4333333 219.926666,17.74 C219.459999,19.0466667 218.783333,20.19 217.896666,21.17 C217.009999,22.15 215.930833,22.9316667 214.659166,23.515 C213.387499,24.0983333 211.958333,24.39 210.371666,24.39 Z M237.018333,26 C238.558333,26 240.104166,25.7433333 241.655833,25.23 C243.207499,24.7166667 244.607499,23.9408333 245.855833,22.9025 C247.104166,21.8641667 248.113333,20.575 248.883333,19.035 C249.653333,17.495 250.038333,15.6866667 250.038333,13.61 C250.038333,11.5566667 249.653333,9.75416667 248.883333,8.2025 C248.113333,6.65083333 247.104166,5.35583333 245.855833,4.3175 C244.607499,3.27916667 243.207499,2.50333333 241.655833,1.99 C240.104166,1.47666667 238.558333,1.22 237.018333,1.22 L237.018333,1.22 L228.793333,1.22 L228.793333,26 L237.018333,26 Z M236.318333,23.76 L231.313333,23.76 L231.313333,3.46 L236.318333,3.46 C238.184999,3.46 239.812499,3.75166667 241.200833,4.335 C242.589166,4.91833333 243.738333,5.6825 244.648333,6.6275 C245.558333,7.5725 246.240833,8.65166667 246.695833,9.865 C247.150833,11.0783333 247.378333,12.3266667 247.378333,13.61 C247.378333,14.8933333 247.150833,16.1416667 246.695833,17.355 C246.240833,18.5683333 245.558333,19.6475 244.648333,20.5925 C243.738333,21.5375 242.589166,22.3016667 241.200833,22.885 C239.812499,23.4683333 238.184999,23.76 236.318333,23.76 L236.318333,23.76 Z M254.529999,26 L257.224999,19.49 L270.034999,19.49 L272.764999,26 L275.564999,26 L264.924999,1.22 L262.474999,1.22 L251.764999,26 L254.529999,26 Z M269.089999,17.18 L258.169999,17.18 L263.629999,4.02 L269.089999,17.18 Z M293.531666,26 L293.531666,23.76 L281.981666,23.76 L281.981666,1.22 L279.461666,1.22 L279.461666,26 L293.531666,26 Z" id="REACTSTMODAL" fill="#FFFFFF" fill-rule="nonzero"></path>
    </g>
</svg>